HIERARCHY
ROOT Hips
{
	OFFSET 0.000000 89.005402 0.000000
	CHANNELS 6 Xposition Yposition Zposition Xrotation Yrotation Zrotation
	JOINT Spine
	{
		OFFSET 0.116900 10.681000 0.373400
		CHANNELS 3 Xrotation Yrotation Zrotation
		JOINT Spine1
		{
			OFFSET 0.000000 13.840401 0.053500
			CHANNELS 3 Xrotation Yrotation Zrotation
			JOINT Spine2
			{
				OFFSET 0.000000 14.712700 -0.366200
				CHANNELS 3 Xrotation Yrotation Zrotation
				JOINT Neck
				{
					OFFSET 0.000000 35.415497 -3.314200
					CHANNELS 3 Xrotation Yrotation Zrotation
					JOINT Head
					{
						OFFSET 0.000000 16.899200 1.218300
						CHANNELS 3 Xrotation Yrotation Zrotation
						JOINT HeadTop_End
						{
							OFFSET 0.000000 22.206207 2.192500
							CHANNELS 3 Xrotation Yrotation Zrotation
							End Site
							{
								OFFSET 0.000000 22.314178 0.000000
							}
						}
					}
				}
				JOINT LeftShoulder
				{
					OFFSET 12.896400 26.716293 -4.548400
					CHANNELS 3 Xrotation Yrotation Zrotation
					JOINT LeftArm
					{
						OFFSET 19.027000 -4.857010 -1.718400
						CHANNELS 3 Xrotation Yrotation Zrotation
						JOINT LeftForeArm
						{
							OFFSET 24.179897 0.000000 0.000000
							CHANNELS 3 Xrotation Yrotation Zrotation
							JOINT LeftHand
							{
								OFFSET 27.156403 0.000000 0.000000
								CHANNELS 3 Xrotation Yrotation Zrotation
								JOINT LeftHandIndex1
								{
									OFFSET 16.441200 0.000000 0.000000
									CHANNELS 3 Xrotation Yrotation Zrotation
									JOINT LeftHandIndex2
									{
										OFFSET 4.821899 0.000000 0.000000
										CHANNELS 3 Xrotation Yrotation Zrotation
										JOINT LeftHandIndex3
										{
											OFFSET 6.386497 0.000000 0.000000
											CHANNELS 3 Xrotation Yrotation Zrotation
											JOINT LeftHandIndex4
											{
												OFFSET 5.188988 0.000000 0.000000
												CHANNELS 3 Xrotation Yrotation Zrotation
												End Site
												{
													OFFSET -0.178703 5.185913 0.000177
												}
											}
										}
									}
								}
								JOINT LeftHandThumb1
								{
									OFFSET 6.534897 -5.032593 5.900300
									CHANNELS 3 Xrotation Yrotation Zrotation
									JOINT LeftHandThumb2
									{
										OFFSET 3.818176 -2.204422 2.204423
										CHANNELS 3 Xrotation Yrotation Zrotation
										JOINT LeftHandThumb3
										{
											OFFSET 3.252098 -1.877594 1.877601
											CHANNELS 3 Xrotation Yrotation Zrotation
											JOINT LeftHandThumb4
											{
												OFFSET 5.251778 -3.032120 3.032117
												CHANNELS 3 Xrotation Yrotation Zrotation
												End Site
												{
													OFFSET 0.000023 6.780014 0.000000
												}
											}
										}
									}
								}
							}
						}
					}
				}
				JOINT RightShoulder
				{
					OFFSET -12.896300 26.716293 -4.548400
					CHANNELS 3 Xrotation Yrotation Zrotation
					JOINT RightArm
					{
						OFFSET -19.027000 -4.857010 -1.718400
						CHANNELS 3 Xrotation Yrotation Zrotation
						JOINT RightForeArm
						{
							OFFSET -24.179897 0.000000 0.000000
							CHANNELS 3 Xrotation Yrotation Zrotation
							JOINT RightHand
							{
								OFFSET -27.156403 0.000000 0.000000
								CHANNELS 3 Xrotation Yrotation Zrotation
								JOINT RightHandThumb1
								{
									OFFSET -6.591202 -4.852203 5.988100
									CHANNELS 3 Xrotation Yrotation Zrotation
									JOINT RightHandThumb2
									{
										OFFSET -3.818176 -2.204422 2.204423
										CHANNELS 3 Xrotation Yrotation Zrotation
										JOINT RightHandThumb3
										{
											OFFSET -3.252098 -1.877594 1.877601
											CHANNELS 3 Xrotation Yrotation Zrotation
											JOINT RightHandThumb4
											{
												OFFSET -5.251778 -3.032120 3.032117
												CHANNELS 3 Xrotation Yrotation Zrotation
												End Site
												{
													OFFSET -0.000023 6.780014 0.000000
												}
											}
										}
									}
								}
								JOINT RightHandIndex1
								{
									OFFSET -16.029404 0.000000 0.000000
									CHANNELS 3 Xrotation Yrotation Zrotation
									JOINT RightHandIndex2
									{
										OFFSET -5.213303 0.000000 0.000000
										CHANNELS 3 Xrotation Yrotation Zrotation
										JOINT RightHandIndex3
										{
											OFFSET -6.386528 0.000000 0.000000
											CHANNELS 3 Xrotation Yrotation Zrotation
											JOINT RightHandIndex4
											{
												OFFSET -5.189026 0.000000 0.000000
												CHANNELS 3 Xrotation Yrotation Zrotation
												End Site
												{
													OFFSET 0.236702 5.183624 0.001972
												}
											}
										}
									}
								}
							}
						}
					}
				}
			}
		}
	}
	JOINT LeftUpLeg
	{
		OFFSET 14.073000 -7.904099 -1.463000
		CHANNELS 3 Xrotation Yrotation Zrotation
		JOINT LeftLeg
		{
			OFFSET -0.109806 -34.073280 4.093200
			CHANNELS 3 Xrotation Yrotation Zrotation
			JOINT LeftFoot
			{
				OFFSET 0.109806 -29.899420 -6.319000
				CHANNELS 3 Xrotation Yrotation Zrotation
				JOINT LeftToeBase
				{
					OFFSET 1.551100 -14.988700 20.535801
					CHANNELS 3 Xrotation Yrotation Zrotation
					JOINT LeftToe_End
					{
						OFFSET 0.221200 0.570800 13.248301
						CHANNELS 3 Xrotation Yrotation Zrotation
						End Site
						{
							OFFSET 0.000000 13.262435 0.000000
						}
					}
				}
			}
		}
	}
	JOINT RightUpLeg
	{
		OFFSET -13.839300 -7.904099 -1.463000
		CHANNELS 3 Xrotation Yrotation Zrotation
		JOINT RightLeg
		{
			OFFSET 0.109694 -34.073219 4.093300
			CHANNELS 3 Xrotation Yrotation Zrotation
			JOINT RightFoot
			{
				OFFSET -0.109694 -29.899384 -6.319200
				CHANNELS 3 Xrotation Yrotation Zrotation
				JOINT RightToeBase
				{
					OFFSET -1.551100 -14.988700 20.535801
					CHANNELS 3 Xrotation Yrotation Zrotation
					JOINT RightToe_End
					{
						OFFSET -0.221200 0.570900 13.248299
						CHANNELS 3 Xrotation Yrotation Zrotation
						End Site
						{
							OFFSET 0.000000 13.262440 0.000000
						}
					}
				}
			}
		}
	}
}
MOTION
Frames: 9
Frame Time: 0.033333
0.136909 84.733788 2.312961 -6.873057 5.427513 2.644322 -0.673103 7.681120 -6.821607 6.303679 0.941421 2.471482 6.226638 1.049989 2.609751 3.305846 2.197870 -1.246930 -24.560906 7.892188 0.065519 0.000000 0.000001 0.000001 0.637029 -4.465733 -4.546018 46.748755 -9.205580 -49.681754 -0.000003 -113.650127 0.000002 41.204878 9.358362 -13.514677 2.838973 -15.840887 9.799889 -0.000001 0.000004 -0.000020 0.002169 -0.173089 1.434429 0.000000 0.000001 0.000000 7.402142 -19.933093 -25.730579 5.281323 7.333315 -0.945769 -0.483646 8.423930 9.079237 0.000001 0.000001 0.000002 0.936428 2.841463 7.513793 -6.810616 13.914158 66.039637 -0.000001 5.960062 0.000000 0.038657 1.331932 -3.232370 -11.246531 -14.395066 -18.372319 7.722393 -13.768702 -1.039371 -1.408949 -0.043983 -2.762711 0.000001 0.000000 0.000000 -0.160351 5.228491 2.055248 0.113217 -1.252186 10.332579 0.358899 -2.209116 18.453544 0.000000 -0.000001 -0.000001 1.476527 6.033813 -8.077058 25.649602 -4.762826 3.403360 -20.300610 27.726202 6.263145 -7.243586 0.000010 0.000004 -0.000000 -0.000001 -0.000000 -13.289650 -6.487563 -17.645462 22.709363 -8.693477 -3.812415 4.076449 -10.116263 16.288077 -5.225569 0.000021 -0.000001 -0.000000 -0.000001 -0.000000 
0.144521 84.737144 2.284214 -6.933855 5.415532 2.630350 -0.561507 7.685263 -6.758004 6.343003 0.950715 2.467259 6.267519 1.060148 2.603486 3.182548 2.146280 -1.230748 -25.009204 8.190552 -0.075159 -0.000001 0.000000 -0.000000 0.637104 -4.452648 -4.566310 46.571556 -9.169672 -49.714843 -0.000003 -113.636104 -0.000004 41.307714 9.352078 -13.657163 2.841374 -15.854276 9.798901 -0.000008 0.000003 -0.000023 0.003700 -0.226041 1.873538 -0.000002 -0.000000 -0.000002 7.448893 -19.918013 -25.466523 5.228256 7.203656 -0.967271 -0.511434 8.008332 9.133861 -0.000000 0.000001 -0.000001 0.932763 2.777046 7.497799 -7.004270 14.084261 65.997188 0.000004 5.960256 0.000028 0.239179 1.649912 -3.235723 -11.277138 -15.174587 -18.579405 7.338505 -12.444720 -0.936514 -1.486372 0.132140 -2.737106 -0.000000 -0.000001 -0.000001 -0.162612 5.229107 2.079049 0.111955 -1.245227 10.274464 0.343938 -2.163771 18.061197 0.000004 -0.000000 0.000000 1.510649 6.018988 -8.047155 25.657157 -4.683298 3.353408 -20.299191 27.729608 6.265753 -7.253418 0.000004 -0.000002 0.000000 0.000000 0.000000 -13.244690 -6.527732 -17.652458 22.671484 -8.691937 -3.784120 4.107108 -10.051658 16.245018 -5.232663 0.000001 -0.000001 -0.000000 -0.000001 -0.000000 
0.147751 84.741776 2.258918 -6.972803 5.402060 2.616904 -0.455525 7.686388 -6.716442 6.369746 0.956592 2.460695 6.295895 1.066900 2.594421 3.073774 2.095288 -1.200674 -25.589970 8.445634 -0.139853 0.000002 0.000000 0.000000 0.637027 -4.441687 -4.578655 46.451799 -9.113763 -49.742366 -0.000037 -113.682352 -0.000029 41.399686 9.337841 -13.744102 2.867872 -16.001858 9.788102 -0.000004 0.000003 -0.000024 0.004712 -0.255340 2.116244 0.000001 -0.000001 -0.000001 7.474976 -19.902480 -25.253163 5.168692 7.316441 -0.939768 -0.543360 7.497872 9.198880 -0.000000 -0.000002 0.000004 0.932040 2.777959 7.492163 -7.101842 14.189784 65.976615 0.000002 5.959534 0.000005 0.431276 1.971177 -3.264539 -11.118731 -15.913306 -18.859967 6.345460 -11.273966 -0.628910 -1.665165 0.522774 -2.697335 0.000001 -0.000000 0.000001 -0.163791 5.233555 2.090423 0.109920 -1.233967 10.180529 0.320838 -2.091660 17.439049 -0.000001 -0.000000 0.000001 1.526566 6.003396 -8.017410 25.658164 -4.624392 3.307536 -20.293180 27.732098 6.271034 -7.283444 0.000008 0.000001 -0.000000 -0.000000 -0.000000 -13.248944 -6.631338 -17.631035 22.627174 -8.699867 -3.847472 4.146684 -9.924664 16.226175 -5.246919 -0.000002 -0.000000 -0.000000 0.000002 0.000000 
0.147643 84.746834 2.238691 -6.979742 5.385750 2.602361 -0.352040 7.685866 -6.693981 6.380244 0.960082 2.447651 6.307682 1.070624 2.579399 2.986335 2.038740 -1.165828 -26.074867 8.652683 -0.179909 -0.000003 0.000000 -0.000000 0.636306 -4.429031 -4.572048 46.396632 -9.070759 -49.760732 0.000093 -113.738953 0.000122 41.387036 9.339935 -13.822047 2.912304 -16.249454 9.770136 -0.000005 0.000002 -0.000024 0.004566 -0.250897 2.079411 -0.000001 -0.000001 0.000000 7.464454 -19.888946 -25.155406 5.128486 7.642344 -0.871486 -0.565696 7.112791 9.245938 0.000001 -0.000001 0.000003 0.933881 2.820266 7.498254 -7.105508 14.223628 65.967476 -0.000006 5.961750 0.000018 0.737119 2.260963 -3.280911 -10.780913 -16.611367 -19.099256 4.872907 -10.278268 -0.060075 -1.878412 0.972473 -2.669932 -0.000002 0.000001 0.000003 -0.161959 5.240681 2.069108 0.108253 -1.224633 10.102763 0.302726 -2.033139 16.935736 -0.000002 -0.000000 0.000001 1.513176 5.982151 -7.998841 25.655425 -4.568841 3.286286 -20.277317 27.735412 6.263310 -7.319501 0.000022 0.000002 -0.000000 -0.000000 0.000001 -13.291422 -6.746935 -17.578107 22.574658 -8.713917 -3.978043 4.196811 -9.792129 16.236529 -5.261717 -0.000008 0.000002 -0.000000 0.000001 0.000000 
0.145221 84.750053 2.223701 -6.956807 5.368557 2.584838 -0.268507 7.679897 -6.686731 6.372544 0.961945 2.436809 6.300619 1.071959 2.567459 2.928035 1.969137 -1.142756 -26.257619 8.788285 -0.263666 -0.000002 0.000002 0.000001 0.635250 -4.417127 -4.553708 46.394412 -9.059848 -49.762839 -0.000013 -113.775754 0.000008 41.293780 9.352336 -13.847888 2.960492 -16.518268 9.750796 -0.000006 0.000003 -0.000020 0.003685 -0.225763 1.871096 -0.000001 -0.000001 0.000001 7.429344 -19.879882 -25.164804 5.116074 8.014412 -0.796696 -0.573923 6.956029 9.263215 0.000001 0.000000 0.000001 0.936431 2.866684 7.509124 -7.087456 14.213420 65.955121 -0.000005 5.955050 0.000035 1.006695 2.459517 -3.250173 -10.606964 -17.179066 -19.294758 3.526136 -9.652215 0.524709 -2.039549 1.300494 -2.664891 -0.000002 0.000001 0.000001 -0.156346 5.245429 2.008406 0.107609 -1.221055 10.072850 0.295313 -2.008684 16.725709 -0.000002 -0.000001 0.000000 1.468182 5.966166 -7.990130 25.663362 -4.531751 3.294433 -20.261661 27.737687 6.248247 -7.342527 0.000019 0.000004 -0.000000 0.000002 -0.000000 -13.350098 -6.822407 -17.505338 22.523724 -8.728396 -4.120866 4.249819 -9.708694 16.267513 -5.271508 0.000004 0.000004 -0.000000 0.000001 0.000000 
0.141053 84.748833 2.213037 -6.915511 5.355810 2.566005 -0.232603 7.663700 -6.695123 6.362395 0.961146 2.449101 6.290289 1.070814 2.579275 2.897579 1.888674 -1.137454 -26.144303 8.807095 -0.417116 0.000001 0.000001 0.000000 0.634769 -4.412998 -4.543600 46.422576 -9.070180 -49.747201 -0.000043 -113.800043 -0.000032 41.173531 9.363162 -13.799043 2.993576 -16.702883 9.737660 -0.000006 0.000001 -0.000023 0.003012 -0.204494 1.694910 0.000000 0.000001 0.000001 7.399917 -19.875188 -25.199886 5.118795 8.243592 -0.751682 -0.573770 6.948032 9.262443 -0.000001 0.000001 0.000002 0.938006 2.897839 7.515427 -7.117814 14.195250 65.928203 0.000015 5.973987 -0.000043 1.218245 2.580630 -3.181239 -10.489598 -17.605842 -19.445953 3.079406 -9.749167 0.686896 -2.093311 1.406765 -2.667726 -0.000002 0.000001 0.000002 -0.148034 5.244884 1.920275 0.107630 -1.221185 10.073861 0.293541 -2.002746 16.674887 -0.000001 0.000000 0.000001 1.397578 5.971476 -7.980681 25.697366 -4.542013 3.314817 -20.261877 27.735612 6.246206 -7.346331 0.000011 0.000005 -0.000000 -0.000001 0.000000 -13.408163 -6.833710 -17.444879 22.496879 -8.735998 -4.205712 4.289350 -9.695717 16.297811 -5.275958 0.000009 0.000006 -0.000000 0.000001 0.000000 
0.136198 84.743813 2.205630 -6.866889 5.351576 2.552062 -0.227726 7.636757 -6.719028 6.352998 0.958587 2.475527 6.280320 1.068020 2.605380 2.874789 1.814233 -1.133175 -25.888490 8.702723 -0.621424 0.000001 -0.000001 0.000000 0.635140 -4.418847 -4.547823 46.462382 -9.079030 -49.725304 -0.000013 -113.808970 0.000006 41.116871 9.345557 -13.740870 2.995708 -16.714877 9.736800 -0.000005 0.000003 -0.000020 0.002979 -0.202956 1.681906 0.000002 0.000001 -0.000001 7.396579 -19.872027 -25.179001 5.122194 8.235152 -0.753671 -0.572232 6.974191 9.259008 0.000000 0.000000 0.000003 0.938963 2.926580 7.517372 -7.140939 14.163246 65.876519 -0.000004 5.920961 0.000036 1.369965 2.657337 -3.102747 -10.378113 -17.882668 -19.558038 3.455741 -9.563153 0.488679 -2.037284 1.295438 -2.665817 -0.000003 0.000000 -0.000000 -0.139114 5.241885 1.826109 0.107622 -1.221051 10.072944 0.290501 -1.992615 16.587920 0.000001 -0.000000 0.000000 1.315441 5.999440 -7.967268 25.749974 -4.602149 3.327828 -20.278328 27.729053 6.266348 -7.343256 0.000016 -0.000000 -0.000000 -0.000003 -0.000000 -13.457246 -6.784850 -17.432716 22.506143 -8.731382 -4.179673 4.305394 -9.744387 16.304409 -5.277766 -0.000007 0.000008 0.000000 0.000002 0.000000 
0.132869 84.739799 2.199296 -6.824859 5.355855 2.546057 -0.230102 7.599712 -6.740297 6.343072 0.954973 2.496310 6.270141 1.063929 2.625505 2.838193 1.763015 -1.108384 -25.596344 8.562440 -0.863856 0.000001 -0.000002 -0.000000 0.635773 -4.430193 -4.553204 46.498603 -9.078203 -49.709888 0.000027 -113.798745 0.000039 41.133049 9.304650 -13.685572 2.966431 -16.551381 9.748446 -0.000007 0.000003 -0.000023 0.003378 -0.216648 1.795827 -0.000004 -0.000001 0.000004 7.415028 -19.868377 -25.094807 5.123287 8.041366 -0.792005 -0.570961 7.003390 9.256514 -0.000000 -0.000001 0.000002 0.940570 2.968196 7.521824 -7.017053 14.078786 65.786845 0.000001 5.953390 -0.000004 1.454682 2.715466 -3.045443 -10.282811 -18.022793 -19.639311 4.459827 -9.027949 0.047487 -1.914899 1.049391 -2.665412 -0.000000 -0.000000 0.000002 -0.132027 5.240125 1.750975 0.107169 -1.218556 10.052011 0.283663 -1.969552 16.390328 -0.000000 -0.000001 -0.000001 1.245828 6.042484 -7.953898 25.795664 -4.698356 3.330093 -20.295158 27.720231 6.303145 -7.344716 -0.000029 -0.000004 -0.000000 -0.000004 -0.000000 -13.482933 -6.702682 -17.472636 22.530180 -8.716150 -4.051057 4.305569 -9.828882 16.278555 -5.277706 -0.000002 0.000002 -0.000000 0.000000 -0.000000 
0.132951 84.741760 2.192165 -6.804773 5.365201 2.543557 -0.228494 7.553942 -6.738516 6.337323 0.950507 2.502606 6.264705 1.058623 2.630937 2.798953 1.737266 -1.068397 -25.261209 8.483916 -1.136474 0.000001 0.000001 0.000000 0.636236 -4.442985 -4.551074 46.518339 -9.074098 -49.702576 0.000042 -113.777619 0.000018 41.170423 9.258303 -13.629063 2.923847 -16.313847 9.765463 -0.000005 0.000004 -0.000023 0.003773 -0.228537 1.894040 -0.000000 -0.000001 -0.000000 7.438817 -19.866929 -25.016688 5.127110 7.788850 -0.842238 -0.567814 7.067460 9.250112 -0.000000 0.000001 0.000002 0.942714 3.012974 7.529824 -6.734481 13.942003 65.663929 0.000001 6.152710 0.000005 1.434503 2.750931 -3.032279 -10.202435 -18.051475 -19.701606 5.621951 -8.460698 -0.400938 -1.784696 0.780300 -2.674710 0.000001 0.000000 -0.000002 -0.129059 5.236176 1.720118 0.106138 -1.212736 10.003390 0.270111 -1.922844 15.990905 0.000000 -0.000001 -0.000000 1.213011 6.092485 -7.943283 25.814294 -4.815023 3.332734 -20.298359 27.711432 6.344216 -7.343826 0.000032 0.000002 -0.000000 -0.000000 0.000000 -13.473618 -6.632759 -17.524693 22.531879 -8.699542 -3.905036 4.310930 -9.908577 16.237660 -5.274764 0.000000 -0.000004 -0.000000 0.000000 0.000000 
